<?xml version="1.0" encoding="utf-8"?>
<!-- Generator: Adobe Illustrator 23.0.0, SVG Export Plug-In . SVG Version: 6.00 Build 0)  -->
<svg version="1.1" id="Logo" xmlns="http://www.w3.org/2000/svg" xmlns:xlink="http://www.w3.org/1999/xlink" x="0px" y="0px"
	 viewBox="0 0 424.59 141.22" style="enable-background:new 0 0 424.59 141.22;" xml:space="preserve">
<style type="text/css">
	.st0{fill:#2D2926;}
	.st1{fill:#6D0D5A;}
</style>
<g>
	<path class="st0" d="M47.4,66.22h-6.12c-1.01,0-1.51-0.5-1.51-1.51V21.43c0-1.01,0.5-1.51,1.51-1.51h17.57
		c3.74,0,6.65,1.02,8.71,3.06c2.06,2.04,3.1,4.93,3.1,8.68v6.91c0,3.74-1.03,6.64-3.1,8.68c-2.06,2.04-4.97,3.06-8.71,3.06h-9.07
		c-0.58,0-0.86,0.26-0.86,0.79V64.7C48.91,65.71,48.41,66.22,47.4,66.22z M49.7,42.31h7.63c1.54,0,2.62-0.32,3.24-0.97
		c0.62-0.65,0.94-1.72,0.94-3.2v-6.05c0-1.54-0.31-2.63-0.94-3.28c-0.62-0.65-1.7-0.97-3.24-0.97H49.7c-0.53,0-0.79,0.26-0.79,0.79
		v12.89C48.91,42.05,49.17,42.31,49.7,42.31z"/>
	<path class="st0" d="M82.89,66.22h-6.12c-1.01,0-1.51-0.5-1.51-1.51v-33.7c0-1.01,0.5-1.51,1.51-1.51h6.12
		c1.01,0,1.51,0.5,1.51,1.51v2.45h0.29c0.53-1.3,1.46-2.28,2.81-2.95c1.34-0.67,2.76-1.01,4.25-1.01h2.59c0.96,0,1.44,0.5,1.44,1.51
		v4.97c0,0.58-0.11,0.97-0.32,1.19c-0.22,0.22-0.59,0.3-1.12,0.25h-4.97c-3.31,0-4.97,1.87-4.97,5.62V64.7
		C84.41,65.71,83.9,66.22,82.89,66.22z"/>
	<path class="st0" d="M98.81,23.3v-6.26c0-0.96,0.48-1.44,1.44-1.44h6.26c0.96,0,1.44,0.46,1.44,1.37v6.34
		c0,0.96-0.48,1.44-1.44,1.44h-6.26C99.29,24.74,98.81,24.27,98.81,23.3z M98.81,64.7v-33.7c0-1.01,0.48-1.51,1.44-1.51h6.19
		c1.01,0,1.51,0.5,1.51,1.51v33.7c0,0.62-0.11,1.03-0.32,1.22c-0.22,0.19-0.59,0.29-1.12,0.29h-6.19
		C99.31,66.22,98.81,65.71,98.81,64.7z"/>
	<path class="st0" d="M112.7,29.5h6.34c0.96,0,1.54,0.5,1.73,1.51l6.19,27.07h0.5l6.05-27.07c0.19-1.01,0.79-1.51,1.8-1.51h6.34
		c1.01,0,1.37,0.5,1.08,1.51l-9.07,33.62c-0.19,1.06-0.84,1.58-1.94,1.58h-9.14c-1.01,0-1.66-0.53-1.94-1.58l-9-33.62
		C111.33,30,111.69,29.5,112.7,29.5z"/>
	<path class="st0" d="M158.92,66.22h-1.73c-3.79,0-6.72-1.01-8.78-3.02c-2.06-2.02-3.1-4.92-3.1-8.71V41.23
		c0-3.79,1.03-6.7,3.1-8.71c2.06-2.02,4.99-3.02,8.78-3.02h16.63c1.06,0,1.58,0.5,1.58,1.51v33.7c0,1.01-0.53,1.51-1.58,1.51h-6.05
		c-1.01,0-1.51-0.5-1.51-1.51v-2.38h-0.29c-0.53,1.3-1.46,2.27-2.81,2.92S160.41,66.22,158.92,66.22z M166.27,52.82V38.21
		c0-0.53-0.29-0.79-0.86-0.79h-6.77c-1.54,0-2.62,0.32-3.24,0.97c-0.62,0.65-0.94,1.74-0.94,3.28v12.38c0,1.54,0.31,2.63,0.94,3.28
		c0.62,0.65,1.7,0.97,3.24,0.97h2.66C164.61,58.3,166.27,56.47,166.27,52.82z"/>
	<path class="st0" d="M182.68,37.42h-2.88c-0.58,0-0.97-0.1-1.19-0.29c-0.22-0.19-0.32-0.58-0.32-1.15v-4.97
		c0-1.01,0.5-1.51,1.51-1.51h2.88c0.53,0,0.79-0.26,0.79-0.79v-6.84c0-1.01,0.53-1.51,1.58-1.51h6.05c1.01,0,1.51,0.5,1.51,1.51
		v6.84c0,0.53,0.29,0.79,0.86,0.79h5.62c1.01,0,1.51,0.5,1.51,1.51v4.97c0,0.53-0.11,0.9-0.32,1.12c-0.22,0.22-0.61,0.32-1.19,0.32
		h-5.62c-0.58,0-0.86,0.26-0.86,0.79v15.91c0,1.49,0.33,2.56,1.01,3.2c0.67,0.65,1.78,0.97,3.31,0.97h2.88
		c1.01,0,1.51,0.5,1.51,1.51v4.97c0,0.53-0.11,0.9-0.32,1.12c-0.22,0.22-0.61,0.32-1.19,0.32h-4.39c-3.79,0-6.73-1.01-8.82-3.02
		s-3.13-4.9-3.13-8.64V38.21C183.48,37.68,183.21,37.42,182.68,37.42z"/>
	<path class="st0" d="M232.44,66.22h-15.91c-3.79,0-6.72-1.01-8.78-3.02c-2.06-2.02-3.1-4.92-3.1-8.71V41.23
		c0-3.79,1.03-6.7,3.1-8.71c2.06-2.02,4.99-3.02,8.78-3.02h5.69c3.79,0,6.72,1.01,8.78,3.02c2.06,2.02,3.1,4.92,3.1,8.71v9.14
		c0,1.01-0.5,1.51-1.51,1.51h-18.07c-0.58,0-0.86,0.26-0.86,0.79v1.58c0,1.49,0.32,2.56,0.97,3.2c0.65,0.65,1.74,0.97,3.28,0.97
		h14.54c1.01,0,1.51,0.53,1.51,1.58v4.75c0,0.53-0.11,0.9-0.32,1.12C233.41,66.11,233.01,66.22,232.44,66.22z M214.51,45.77h9.79
		c0.53,0,0.79-0.26,0.79-0.79v-3.46c0-1.54-0.31-2.62-0.94-3.24c-0.62-0.62-1.7-0.94-3.24-0.94h-3.02c-1.54,0-2.62,0.31-3.24,0.94
		c-0.62,0.62-0.94,1.7-0.94,3.24v3.46C213.71,45.51,213.98,45.77,214.51,45.77z"/>
	<path class="st0" d="M278.66,66.22h-23.54c-1.01,0-1.51-0.5-1.51-1.51V21.43c0-1.01,0.5-1.51,1.51-1.51h23.54
		c0.96,0,1.44,0.5,1.44,1.51v4.9c0,1.01-0.48,1.51-1.44,1.51h-15.05c-0.58,0-0.86,0.26-0.86,0.79v9.36c0,0.53,0.29,0.79,0.86,0.79
		h12.31c1.01,0,1.51,0.5,1.51,1.51v4.9c0,1.01-0.5,1.51-1.51,1.51h-12.31c-0.58,0-0.86,0.26-0.86,0.79v10.01
		c0,0.53,0.29,0.79,0.86,0.79h15.05c0.96,0,1.44,0.5,1.44,1.51v4.9C280.1,65.71,279.62,66.22,278.66,66.22z"/>
	<path class="st0" d="M298.24,66.22h-1.66c-3.79,0-6.72-1.01-8.78-3.02c-2.06-2.02-3.1-4.92-3.1-8.71V41.23
		c0-3.79,1.03-6.7,3.1-8.71c2.06-2.02,4.99-3.02,8.78-3.02h16.63c1.06,0,1.58,0.5,1.58,1.51v43.56c0,0.96-0.53,1.44-1.58,1.44h-6.05
		c-1.01,0-1.51-0.48-1.51-1.44V62.26h-0.29C304.22,64.9,301.84,66.22,298.24,66.22z M305.66,52.75V38.21c0-0.53-0.29-0.79-0.86-0.79
		h-6.77c-1.54,0-2.62,0.32-3.24,0.97c-0.62,0.65-0.94,1.74-0.94,3.28v12.38c0,1.54,0.31,2.63,0.94,3.28
		c0.62,0.65,1.7,0.97,3.24,0.97h2.59C303.98,58.3,305.66,56.45,305.66,52.75z"/>
	<path class="st0" d="M334.02,66.22h-2.38c-3.7,0-6.49-1.01-8.39-3.02c-1.9-2.02-2.84-4.92-2.84-8.71V31.01
		c0-1.01,0.5-1.51,1.51-1.51h6.12c1.01,0,1.51,0.5,1.51,1.51v23.04c0,1.54,0.32,2.63,0.97,3.28c0.65,0.65,1.72,0.97,3.2,0.97h2.66
		c3.31,0,4.97-1.82,4.97-5.47V31.01c0-1.01,0.5-1.51,1.51-1.51h6.05c1.05,0,1.58,0.5,1.58,1.51v33.7c0,1.01-0.53,1.51-1.58,1.51
		h-6.05c-1.01,0-1.51-0.5-1.51-1.51v-2.38h-0.29c-0.53,1.3-1.46,2.27-2.81,2.92C336.93,65.89,335.51,66.22,334.02,66.22z"/>
	<path class="st0" d="M356.85,23.3v-6.26c0-0.96,0.48-1.44,1.44-1.44h6.26c0.96,0,1.44,0.46,1.44,1.37v6.34
		c0,0.96-0.48,1.44-1.44,1.44h-6.26C357.33,24.74,356.85,24.27,356.85,23.3z M356.85,64.7v-33.7c0-1.01,0.48-1.51,1.44-1.51h6.19
		c1.01,0,1.51,0.5,1.51,1.51v33.7c0,0.62-0.11,1.03-0.32,1.22c-0.22,0.19-0.59,0.29-1.12,0.29h-6.19
		C357.35,66.22,356.85,65.71,356.85,64.7z"/>
	<path class="st0" d="M373.12,37.42h-2.88c-0.58,0-0.97-0.1-1.19-0.29c-0.22-0.19-0.32-0.58-0.32-1.15v-4.97
		c0-1.01,0.5-1.51,1.51-1.51h2.88c0.53,0,0.79-0.26,0.79-0.79v-6.84c0-1.01,0.53-1.51,1.58-1.51h6.05c1.01,0,1.51,0.5,1.51,1.51
		v6.84c0,0.53,0.29,0.79,0.86,0.79h5.62c1.01,0,1.51,0.5,1.51,1.51v4.97c0,0.53-0.11,0.9-0.32,1.12c-0.22,0.22-0.61,0.32-1.19,0.32
		h-5.62c-0.58,0-0.86,0.26-0.86,0.79v15.91c0,1.49,0.33,2.56,1.01,3.2c0.67,0.65,1.78,0.97,3.31,0.97h2.88
		c1.01,0,1.51,0.5,1.51,1.51v4.97c0,0.53-0.11,0.9-0.32,1.12c-0.22,0.22-0.61,0.32-1.19,0.32h-4.39c-3.79,0-6.73-1.01-8.82-3.02
		s-3.13-4.9-3.13-8.64V38.21C373.91,37.68,373.65,37.42,373.12,37.42z"/>
	<path class="st0" d="M401.77,78.39h-4.61c-0.96,0-1.44-0.53-1.44-1.58v-4.82c0-1.06,0.48-1.58,1.44-1.58h1.51
		c3.02,0,5.08-0.42,6.16-1.26c1.08-0.84,1.91-2.46,2.48-4.86h-3.82c-0.91,0-1.51-0.5-1.8-1.51l-8.42-31.75
		c-0.29-1.01,0.07-1.51,1.08-1.51h6.41c0.96,0,1.56,0.5,1.8,1.51l6.19,26.57h0.29l6.12-26.57c0.19-1.01,0.79-1.51,1.8-1.51h6.05
		c1.2,0,1.68,0.53,1.44,1.58l-8.78,35.14c-1.06,3.98-2.69,7.01-4.9,9.07C408.57,77.35,405.57,78.39,401.77,78.39z"/>
	<path class="st0" d="M49.27,76.43v43.27c0,1.01-0.5,1.51-1.51,1.51h-6.12c-1.01,0-1.51-0.5-1.51-1.51V76.43
		c0-1.01,0.5-1.51,1.51-1.51h6.12C48.77,74.92,49.27,75.43,49.27,76.43z"/>
	<path class="st0" d="M63.31,121.22h-6.12c-1.01,0-1.51-0.5-1.51-1.51v-33.7c0-1.01,0.5-1.51,1.51-1.51h6.12
		c1.01,0,1.51,0.5,1.51,1.51v2.38h0.29c1.06-2.59,3.41-3.89,7.06-3.89h2.3c7.54,0,11.3,3.91,11.3,11.74v23.47
		c0,1.01-0.53,1.51-1.58,1.51h-6.05c-1.01,0-1.51-0.5-1.51-1.51V96.67c0-1.54-0.32-2.63-0.97-3.28c-0.65-0.65-1.74-0.97-3.28-0.97
		h-2.59c-3.31,0-4.97,1.82-4.97,5.47v21.82C64.82,120.71,64.32,121.22,63.31,121.22z"/>
	<path class="st0" d="M91.53,92.42h-2.88c-0.58,0-0.97-0.1-1.19-0.29c-0.22-0.19-0.32-0.58-0.32-1.15v-4.97
		c0-1.01,0.5-1.51,1.51-1.51h2.88c0.53,0,0.79-0.26,0.79-0.79v-6.84c0-1.01,0.53-1.51,1.58-1.51h6.05c1.01,0,1.51,0.5,1.51,1.51
		v6.84c0,0.53,0.29,0.79,0.86,0.79h5.62c1.01,0,1.51,0.5,1.51,1.51v4.97c0,0.53-0.11,0.9-0.32,1.12s-0.61,0.32-1.19,0.32h-5.62
		c-0.58,0-0.86,0.26-0.86,0.79v15.91c0,1.49,0.34,2.56,1.01,3.2c0.67,0.65,1.78,0.97,3.31,0.97h2.88c1.01,0,1.51,0.5,1.51,1.51v4.97
		c0,0.53-0.11,0.9-0.32,1.12c-0.22,0.22-0.61,0.32-1.19,0.32h-4.39c-3.79,0-6.73-1.01-8.82-3.02c-2.09-2.02-3.13-4.9-3.13-8.64
		V93.21C92.33,92.68,92.06,92.42,91.53,92.42z"/>
	<path class="st0" d="M140.64,121.22h-15.91c-3.79,0-6.72-1.01-8.78-3.02c-2.06-2.02-3.1-4.92-3.1-8.71V96.23
		c0-3.79,1.03-6.7,3.1-8.71c2.06-2.02,4.99-3.02,8.78-3.02h5.69c3.79,0,6.72,1.01,8.78,3.02c2.06,2.02,3.1,4.92,3.1,8.71v9.14
		c0,1.01-0.5,1.51-1.51,1.51h-18.07c-0.58,0-0.86,0.26-0.86,0.79v1.58c0,1.49,0.32,2.56,0.97,3.2c0.65,0.65,1.74,0.97,3.28,0.97
		h14.54c1.01,0,1.51,0.53,1.51,1.58v4.75c0,0.53-0.11,0.9-0.32,1.12C141.61,121.11,141.21,121.22,140.64,121.22z M122.71,100.77
		h9.79c0.53,0,0.79-0.26,0.79-0.79v-3.46c0-1.54-0.31-2.62-0.94-3.24c-0.62-0.62-1.7-0.94-3.24-0.94h-3.02
		c-1.54,0-2.62,0.31-3.24,0.94c-0.62,0.62-0.94,1.71-0.94,3.24v3.46C121.92,100.51,122.18,100.77,122.71,100.77z"/>
	<path class="st0" d="M154.17,121.22h-6.12c-1.01,0-1.51-0.5-1.51-1.51v-33.7c0-1.01,0.5-1.51,1.51-1.51h6.12
		c1.01,0,1.51,0.5,1.51,1.51v2.45h0.29c0.53-1.3,1.46-2.28,2.81-2.95c1.34-0.67,2.76-1.01,4.25-1.01h2.59c0.96,0,1.44,0.5,1.44,1.51
		v4.97c0,0.58-0.11,0.97-0.32,1.19c-0.22,0.22-0.59,0.3-1.12,0.25h-4.97c-3.31,0-4.97,1.87-4.97,5.62v21.67
		C155.68,120.71,155.18,121.22,154.17,121.22z"/>
	<path class="st0" d="M177.86,121.22h-6.12c-1.01,0-1.51-0.5-1.51-1.51v-33.7c0-1.01,0.5-1.51,1.51-1.51h6.12
		c1.01,0,1.51,0.5,1.51,1.51v2.38h0.29c1.06-2.59,3.41-3.89,7.06-3.89h2.3c7.54,0,11.3,3.91,11.3,11.74v23.47
		c0,1.01-0.53,1.51-1.58,1.51h-6.05c-1.01,0-1.51-0.5-1.51-1.51V96.67c0-1.54-0.32-2.63-0.97-3.28c-0.65-0.65-1.74-0.97-3.28-0.97
		h-2.59c-3.31,0-4.97,1.82-4.97,5.47v21.82C179.37,120.71,178.87,121.22,177.86,121.22z"/>
	<path class="st0" d="M218.18,121.22h-1.73c-3.79,0-6.72-1.01-8.78-3.02c-2.06-2.02-3.1-4.92-3.1-8.71V96.23
		c0-3.79,1.03-6.7,3.1-8.71c2.06-2.02,4.99-3.02,8.78-3.02h16.63c1.06,0,1.58,0.5,1.58,1.51v33.7c0,1.01-0.53,1.51-1.58,1.51h-6.05
		c-1.01,0-1.51-0.5-1.51-1.51v-2.38h-0.29c-0.53,1.3-1.46,2.27-2.81,2.92C221.08,120.89,219.67,121.22,218.18,121.22z
		 M225.52,107.82V93.21c0-0.53-0.29-0.79-0.86-0.79h-6.77c-1.54,0-2.62,0.32-3.24,0.97c-0.62,0.65-0.94,1.74-0.94,3.28v12.38
		c0,1.54,0.31,2.63,0.94,3.28c0.62,0.65,1.7,0.97,3.24,0.97h2.66C223.87,113.3,225.52,111.47,225.52,107.82z"/>
	<path class="st0" d="M241.94,92.42h-2.88c-0.58,0-0.97-0.1-1.19-0.29c-0.22-0.19-0.32-0.58-0.32-1.15v-4.97
		c0-1.01,0.5-1.51,1.51-1.51h2.88c0.53,0,0.79-0.26,0.79-0.79v-6.84c0-1.01,0.53-1.51,1.58-1.51h6.05c1.01,0,1.51,0.5,1.51,1.51
		v6.84c0,0.53,0.29,0.79,0.86,0.79h5.62c1.01,0,1.51,0.5,1.51,1.51v4.97c0,0.53-0.11,0.9-0.32,1.12c-0.22,0.22-0.61,0.32-1.19,0.32
		h-5.62c-0.58,0-0.86,0.26-0.86,0.79v15.91c0,1.49,0.33,2.56,1.01,3.2c0.67,0.65,1.78,0.97,3.31,0.97h2.88
		c1.01,0,1.51,0.5,1.51,1.51v4.97c0,0.53-0.11,0.9-0.32,1.12s-0.61,0.32-1.19,0.32h-4.39c-3.79,0-6.73-1.01-8.82-3.02
		c-2.09-2.02-3.13-4.9-3.13-8.64V93.21C242.73,92.68,242.47,92.42,241.94,92.42z"/>
	<path class="st0" d="M264.33,78.3v-6.26c0-0.96,0.48-1.44,1.44-1.44h6.26c0.96,0,1.44,0.46,1.44,1.37v6.34
		c0,0.96-0.48,1.44-1.44,1.44h-6.26C264.81,79.74,264.33,79.27,264.33,78.3z M264.33,119.7v-33.7c0-1.01,0.48-1.51,1.44-1.51h6.19
		c1.01,0,1.51,0.5,1.51,1.51v33.7c0,0.62-0.11,1.03-0.32,1.22c-0.22,0.19-0.59,0.29-1.12,0.29h-6.19
		C264.83,121.22,264.33,120.71,264.33,119.7z"/>
	<path class="st0" d="M296.08,121.22h-6.41c-3.79,0-6.72-1.01-8.78-3.02c-2.06-2.02-3.1-4.92-3.1-8.71V96.23
		c0-3.79,1.03-6.7,3.1-8.71c2.06-2.02,4.99-3.02,8.78-3.02h6.41c3.74,0,6.66,1.02,8.75,3.06c2.09,2.04,3.13,4.93,3.13,8.68v13.25
		c0,3.74-1.04,6.64-3.13,8.68C302.74,120.2,299.83,121.22,296.08,121.22z M291.04,113.37h3.67c1.54,0,2.63-0.31,3.28-0.94
		c0.65-0.62,0.97-1.7,0.97-3.24V96.52c0-1.54-0.32-2.62-0.97-3.24c-0.65-0.62-1.74-0.94-3.28-0.94h-3.67
		c-1.54,0-2.62,0.31-3.24,0.94c-0.62,0.62-0.94,1.71-0.94,3.24v12.67c0,1.54,0.31,2.62,0.94,3.24
		C288.42,113.06,289.5,113.37,291.04,113.37z"/>
	<path class="st0" d="M320.2,121.22h-6.12c-1.01,0-1.51-0.5-1.51-1.51v-33.7c0-1.01,0.5-1.51,1.51-1.51h6.12
		c1.01,0,1.51,0.5,1.51,1.51v2.38H322c1.06-2.59,3.41-3.89,7.06-3.89h2.3c7.54,0,11.3,3.91,11.3,11.74v23.47
		c0,1.01-0.53,1.51-1.58,1.51h-6.05c-1.01,0-1.51-0.5-1.51-1.51V96.67c0-1.54-0.32-2.63-0.97-3.28c-0.65-0.65-1.74-0.97-3.28-0.97
		h-2.59c-3.31,0-4.97,1.82-4.97,5.47v21.82C321.71,120.71,321.21,121.22,320.2,121.22z"/>
	<path class="st0" d="M360.52,121.22h-1.73c-3.79,0-6.72-1.01-8.78-3.02c-2.06-2.02-3.1-4.92-3.1-8.71V96.23
		c0-3.79,1.03-6.7,3.1-8.71c2.06-2.02,4.99-3.02,8.78-3.02h16.63c1.06,0,1.58,0.5,1.58,1.51v33.7c0,1.01-0.53,1.51-1.58,1.51h-6.05
		c-1.01,0-1.51-0.5-1.51-1.51v-2.38h-0.29c-0.53,1.3-1.46,2.27-2.81,2.92C363.42,120.89,362.01,121.22,360.52,121.22z
		 M367.86,107.82V93.21c0-0.53-0.29-0.79-0.86-0.79h-6.77c-1.54,0-2.62,0.32-3.24,0.97c-0.62,0.65-0.94,1.74-0.94,3.28v12.38
		c0,1.54,0.31,2.63,0.94,3.28c0.62,0.65,1.7,0.97,3.24,0.97h2.66C366.21,113.3,367.86,111.47,367.86,107.82z"/>
	<path class="st0" d="M390.33,121.22h-6.12c-1.01,0-1.51-0.5-1.51-1.51V72.11c0-1.01,0.5-1.51,1.51-1.51h6.12
		c1.01,0,1.51,0.5,1.51,1.51v47.59C391.84,120.71,391.33,121.22,390.33,121.22z"/>
</g>
<rect class="st1" width="19.84" height="141.22"/>
</svg>
